<svg id="Calque_2" data-name="Calque 2" xmlns="http://www.w3.org/2000/svg" viewBox="0 0 116.3 95.9"><title>browser</title><path d="M99.3,86.8a23.6,23.6,0,0,0,5.1-4.2l5.3,3.1,4.8-8.4-5.3-3.1a23.3,23.3,0,0,0,1.1-6.5l6-1.1-1.7-9.5-6,1.1a23.4,23.4,0,0,0-3.3-5.7l3.9-4.7-7.4-6.2-3.9,4.7A23.3,23.3,0,0,0,91.7,44V37.9H82V44a23.3,23.3,0,0,0-6.2,2.3l-3.9-4.7-7.4,6.2,3.9,4.7a23.5,23.5,0,0,0-3.3,5.7l-6-1.1-1.7,9.5,6,1.1a23.4,23.4,0,0,0,1.1,6.5l-5.3,3.1,4.8,8.4,5.3-3.1a23.6,23.6,0,0,0,5,4.2l-2.1,5.8,9.1,3.3,2.1-5.8,3.3.2,3.3-.2,2.1,5.8,9.1-3.3ZM86.9,79.3A12.3,12.3,0,1,1,99.2,66.9,12.4,12.4,0,0,1,86.9,79.3Zm0,0" fill="#46d0ae"/><line x1="8.8" y1="6.9" x2="8.8" y2="6.9" fill="none" stroke="#ff937e" stroke-linecap="round" stroke-linejoin="round" stroke-width="3.43"/><line x1="14.1" y1="6.9" x2="14.1" y2="6.9" fill="none" stroke="#eae200" stroke-linecap="round" stroke-linejoin="round" stroke-width="3.43"/><line x1="19.4" y1="6.9" x2="19.4" y2="6.9" fill="none" stroke="#46d0ae" stroke-linecap="round" stroke-linejoin="round" stroke-width="3.43"/><line x1="9.9" y1="22.7" x2="9.9" y2="22.7" fill="none" stroke="#1d2d5e" stroke-linecap="round" stroke-linejoin="round" stroke-width="3.43"/><path d="M51.7,69.2H5a3.3,3.3,0,0,1-3.3-3.3V5A3.3,3.3,0,0,1,5,1.7H80.8A3.3,3.3,0,0,1,84,5V27" fill="none" stroke="#1d2d5e" stroke-linecap="round" stroke-linejoin="round" stroke-width="3.43"/><line x1="1.7" y1="11.4" x2="84" y2="11.4" fill="none" stroke="#1d2d5e" stroke-linecap="round" stroke-linejoin="round" stroke-width="3.43"/><path d="M96.5,83.4a23.6,23.6,0,0,0,5.1-4.2l5.3,3.1,4.8-8.4-5.3-3.1a23.3,23.3,0,0,0,1.1-6.5l6-1.1-1.7-9.5-6,1.1a23.4,23.4,0,0,0-3.3-5.7l3.9-4.7-7.4-6.2-3.9,4.7A23.3,23.3,0,0,0,89,40.5V34.4H79.3v6.1a23.3,23.3,0,0,0-6.2,2.3l-3.9-4.7-7.4,6.2L65.7,49a23.5,23.5,0,0,0-3.3,5.7l-6-1.1-1.7,9.5,6,1.1a23.4,23.4,0,0,0,1.1,6.5l-5.3,3.1,4.8,8.4,5.3-3.1a23.6,23.6,0,0,0,5,4.2l-2.1,5.8,9.1,3.3,2.1-5.8,3.3.2,3.3-.2,2.1,5.8,9.1-3.3ZM84.1,75.8A12.3,12.3,0,1,1,96.5,63.5,12.4,12.4,0,0,1,84.1,75.8Zm0,0" fill="none" stroke="#1d2d5e" stroke-linecap="round" stroke-linejoin="round" stroke-width="4.11"/><line x1="18.3" y1="11.4" x2="18.3" y2="69.2" fill="none" stroke="#1d2d5e" stroke-linecap="round" stroke-linejoin="round" stroke-width="3.43"/><line x1="27.2" y1="23.5" x2="74.8" y2="23.5" fill="none" stroke="#1d2d5e" stroke-linecap="round" stroke-linejoin="round" stroke-width="3.43"/><line x1="27.2" y1="30.5" x2="65" y2="30.5" fill="none" stroke="#1d2d5e" stroke-linecap="round" stroke-linejoin="round" stroke-width="3.43"/><line x1="27.2" y1="37.5" x2="54.7" y2="37.5" fill="none" stroke="#1d2d5e" stroke-linecap="round" stroke-linejoin="round" stroke-width="3.43"/><line x1="1.7" y1="58.6" x2="18.3" y2="58.6" fill="none" stroke="#1d2d5e" stroke-linecap="round" stroke-linejoin="round" stroke-width="3.43"/></svg>