<svg id="Calque_2" data-name="Calque 2" xmlns="http://www.w3.org/2000/svg" viewBox="0 0 1814 704.8"><title>code-light</title><path d="M1813.1,398.8c-3.7,19.7-11.4,36.3-17.3,37.2s-16.3-11.5-23.3-27.6.7-32.8,17.3-37.2S1816.8,379.1,1813.1,398.8Z" transform="translate(0.1 0)" fill="#eae200"/><path d="M171.8,198c0,18.7-8.5,31.8-18.9,29.2s-24.6-17.8-31.7-33.9,1.5-29.2,18.9-29.2S171.8,179.3,171.8,198Z" transform="translate(0.1 0)" fill="#f2ab85"/><polyline points="201.5 202.5 191 189.3 180.4 202.5 169.9 189.3 159.4 202.5 148.8 189.3 138.3 202.5" fill="none" stroke="#1d2d5e" stroke-linecap="round" stroke-linejoin="round" stroke-width="4.38"/><path d="M202.7,619.4l-5.4-32.7a3.4,3.4,0,0,1,4.6-3.7l31,12.1a3.4,3.4,0,0,1,.9,5.8l-25.6,20.6a3.4,3.4,0,0,1-5.5-2.1Z" transform="translate(0.1 0)" fill="#46d0ae"/><polyline points="1260.8 18.3 1274.7 27.7 1265.3 41.7" fill="none" stroke="#1d2d5e" stroke-linecap="round" stroke-linejoin="round" stroke-width="4.72"/><polyline points="1236.2 47.3 1222.2 37.9 1231.7 23.9" fill="none" stroke="#1d2d5e" stroke-linecap="round" stroke-linejoin="round" stroke-width="4.72"/><line x1="1248.5" y1="11.5" x2="1248.5" y2="53" fill="none" stroke="#1d2d5e" stroke-linecap="round" stroke-linejoin="round" stroke-width="4.72"/><path d="M20,499.5q-4.9-.3-7.4-2.8t-2.9-8a18.7,18.7,0,0,1,.1-2.5l.4-3q.2-1.4.3-2.6l.5-4.3a6.7,6.7,0,0,0,.1-1,3.4,3.4,0,0,0-1.3-3,7,7,0,0,0-4.1-.9,2.9,2.9,0,0,1-2.5-1.2,3.9,3.9,0,0,1-.7-2.8,3.3,3.3,0,0,1,3.4-3.2h.3a8.8,8.8,0,0,0,5-1.2,5.7,5.7,0,0,0,2.1-4.1q.1-.3.9-7.2l.4-3.2q.7-5.4,4.3-8a14,14,0,0,1,7.5-2.6" transform="translate(0.1 0)" fill="none" stroke="#1d2d5e" stroke-linecap="round" stroke-linejoin="round" stroke-width="5.21"/><path d="M1605.3,105.8c3.7,22.5.6,37.4-14,56.8" transform="translate(0.1 0)" fill="none" stroke="#46d0ae" stroke-linecap="round" stroke-miterlimit="10" stroke-width="29.8"/><path d="M1606.6,128.2q4.7-1.5,7.9-.2t5.6,6.4a18.7,18.7,0,0,1,.8,2.3l.8,3,.7,2.6,1.1,4.2.3,1a3.4,3.4,0,0,0,2.3,2.3,7,7,0,0,0,4.1-.6,2.9,2.9,0,0,1,2.7.2,3.9,3.9,0,0,1,1.7,2.4,3.3,3.3,0,0,1-2,4.2h-.2a8.8,8.8,0,0,0-4.2,3,5.7,5.7,0,0,0-.4,4.6l1.8,7,.9,3.1q1.3,5.3-1,9a14,14,0,0,1-6,5.2" transform="translate(0.1 0)" fill="none" stroke="#1d2d5e" stroke-linecap="round" stroke-linejoin="round" stroke-width="5.21"/><line x1="1766.2" y1="390.7" x2="1763.4" y2="400.6" fill="none" stroke="#1d2d5e" stroke-linecap="round" stroke-linejoin="round" stroke-width="6.6"/><line x1="1778.5" y1="390.7" x2="1775.7" y2="400.6" fill="none" stroke="#1d2d5e" stroke-linecap="round" stroke-linejoin="round" stroke-width="6.6"/><path d="M630.2,17.6C624.5.8,608.1-4.5,593.1,4.1s-25.2,17.1-22,22.9,20.8,16.5,38.6,19.9S636.2,35.5,630.2,17.6Z" transform="translate(0.1 0)" fill="#eae200"/><line x1="598.3" y1="26.5" x2="578.1" y2="43" fill="none" stroke="#1d2d5e" stroke-linecap="round" stroke-linejoin="round" stroke-width="5.59"/><polyline points="887.4 134.4 873.5 125 882.9 111.1" fill="none" stroke="#1d2d5e" stroke-linecap="round" stroke-linejoin="round" stroke-width="4.72"/><line x1="1543" y1="688.3" x2="1564.8" y2="682.7" fill="none" stroke="#1d2d5e" stroke-linecap="round" stroke-linejoin="round" stroke-width="5.59"/><line x1="1546.5" y1="702" x2="1568.3" y2="696.5" fill="none" stroke="#1d2d5e" stroke-linecap="round" stroke-linejoin="round" stroke-width="5.59"/></svg>