<svg id="Calque_2" data-name="Calque 2" xmlns="http://www.w3.org/2000/svg" viewBox="0 0 114.6 111.7"><title>disk</title><rect x="24.9" y="63.3" width="64.7" height="43.12" rx="4.7" ry="4.7" fill="#eae200"/><rect x="33.2" y="8.6" width="48.4" height="32.28" rx="3.5" ry="3.5" fill="#46d0ae"/><line x1="2.7" y1="37.6" x2="2.7" y2="35.9" fill="none" stroke="#1d2d5e" stroke-linecap="round" stroke-linejoin="round" stroke-width="5.34"/><path d="M2.7,24.9V6.3A3.7,3.7,0,0,1,6.3,2.7H82.1a3.7,3.7,0,0,1,2.6,1.1L98.8,17.8a3.7,3.7,0,0,1,1.1,2.6V96.2a3.7,3.7,0,0,1-3.7,3.7H6.3a3.7,3.7,0,0,1-3.7-3.7V46.7" fill="none" stroke="#1d2d5e" stroke-linecap="round" stroke-linejoin="round" stroke-width="5.34"/><polyline points="18.9 99.8 18.9 57.3 83.6 57.3 83.6 90.8" fill="none" stroke="#1d2d5e" stroke-linecap="round" stroke-linejoin="round" stroke-width="5.34"/><rect x="27.5" y="2.7" width="47.5" height="29.64" fill="none" stroke="#1d2d5e" stroke-linecap="round" stroke-linejoin="round" stroke-width="5.34"/><line x1="69" y1="71.4" x2="69.3" y2="71.4" fill="none" stroke="#1d2d5e" stroke-linecap="round" stroke-linejoin="round" stroke-width="5.34"/><line x1="33.2" y1="71.4" x2="60.5" y2="71.4" fill="none" stroke="#1d2d5e" stroke-linecap="round" stroke-linejoin="round" stroke-width="5.34"/><line x1="33.2" y1="84.6" x2="69.3" y2="84.6" fill="none" stroke="#1d2d5e" stroke-linecap="round" stroke-linejoin="round" stroke-width="5.34"/><line x1="40.1" y1="12.3" x2="40.1" y2="19.9" fill="none" stroke="#1d2d5e" stroke-linecap="round" stroke-linejoin="round" stroke-width="5.34"/><path d="M2.7,91.8v14.1a3.2,3.2,0,0,0,3.2,3.2H96.7a3.2,3.2,0,0,0,3.2-3.2V91.8" fill="none" stroke="#1d2d5e" stroke-linecap="round" stroke-linejoin="round" stroke-width="5.34"/><line x1="112.1" y1="71.6" x2="112.1" y2="54.8" fill="none" stroke="#1d2d5e" stroke-linecap="round" stroke-linejoin="round" stroke-width="5"/><line x1="112.1" y1="44.8" x2="112.1" y2="43" fill="none" stroke="#1d2d5e" stroke-linecap="round" stroke-linejoin="round" stroke-width="5"/></svg>