<svg id="Calque_2" data-name="Calque 2" xmlns="http://www.w3.org/2000/svg" viewBox="0 0 159.1 124.5"><title>game</title><path d="M156.1,77.3a36,36,0,0,0-36-36.5H43.4C23.6,40.8,7.1,56.5,6.9,76.3" fill="none" stroke="#1d2d5e" stroke-linecap="round" stroke-linejoin="round" stroke-width="6"/><path d="M12.9,40.4A43.4,43.4,0,0,0,3,52" fill="none" stroke="#1d2d5e" stroke-linecap="round" stroke-linejoin="round" stroke-width="6"/><path d="M22.2,34.9l-1.6.7" fill="none" stroke="#1d2d5e" stroke-linecap="round" stroke-linejoin="round" stroke-width="6"/><path d="M6.9,76.3a36,36,0,0,0,57.7,29.2,10.7,10.7,0,0,1,6.5-2.1H92a11.1,11.1,0,0,1,6.7,2.3,36,36,0,0,0,57.5-28.3" fill="none" stroke="#1d2d5e" stroke-linecap="round" stroke-linejoin="round" stroke-width="5"/><circle cx="136.4" cy="72.6" r="8.2" fill="#ff937e"/><circle cx="124.6" cy="92.6" r="8.4" fill="#ff937e"/><line x1="70.7" y1="89.8" x2="76.1" y2="89.8" fill="none" stroke="#1d2d5e" stroke-linecap="round" stroke-linejoin="round" stroke-width="6"/><line x1="87.1" y1="89.8" x2="92.6" y2="89.8" fill="none" stroke="#1d2d5e" stroke-linecap="round" stroke-linejoin="round" stroke-width="6"/><line x1="73.4" y1="55.8" x2="100.9" y2="55.8" fill="none" stroke="#1d2d5e" stroke-linecap="round" stroke-linejoin="round" stroke-width="6"/><line x1="63.7" y1="55.8" x2="64.3" y2="55.8" fill="none" stroke="#1d2d5e" stroke-linecap="round" stroke-linejoin="round" stroke-width="6"/><line x1="71.9" y1="66.6" x2="93.3" y2="66.6" fill="none" stroke="#1d2d5e" stroke-linecap="round" stroke-linejoin="round" stroke-width="6"/><path d="M39.5,96.6a2,2,0,0,1-2-2V88H30.9a2,2,0,0,1-2-2V78.5a2,2,0,0,1,2-2h6.6V69.9a2,2,0,0,1,2-2H47a2,2,0,0,1,2,2v6.6h6.6a2,2,0,0,1,2,2V86a2,2,0,0,1-2,2H49v6.6a2,2,0,0,1-2,2Z" fill="#46d0ae"/><path d="M47,69.9v8.6h8.6V86H47v8.6H39.5V86H30.9V78.5h8.6V69.9H47m0-4H39.5a4,4,0,0,0-4,4v4.6H30.9a4,4,0,0,0-4,4V86a4,4,0,0,0,4,4h4.6v4.6a4,4,0,0,0,4,4H47a4,4,0,0,0,4-4V90h4.6a4,4,0,0,0,4-4V78.5a4,4,0,0,0-4-4H51V69.9a4,4,0,0,0-4-4Z" fill="#46d0ae"/><path d="M131.4,63.4a4.2,4.2,0,1,1-4.2,4.2,4.2,4.2,0,0,1,4.2-4.2m0-6a10.2,10.2,0,1,0,10.2,10.2,10.3,10.3,0,0,0-10.2-10.2Z" fill="#1d2d5e"/><path d="M119.6,83.4a4.2,4.2,0,1,1-4.2,4.2,4.2,4.2,0,0,1,4.2-4.2m0-6a10.2,10.2,0,1,0,10.2,10.2,10.3,10.3,0,0,0-10.2-10.2Z" fill="#1d2d5e"/><path d="M41,63.9v8.6h8.6V80H41v8.6H33.5V80H24.9V72.5h8.6V63.9H41m0-6H33.5a6,6,0,0,0-6,6v2.6H24.9a6,6,0,0,0-6,6V80a6,6,0,0,0,6,6h2.6v2.6a6,6,0,0,0,6,6H41a6,6,0,0,0,6-6V86h2.6a6,6,0,0,0,6-6V72.5a6,6,0,0,0-6-6H47V63.9a6,6,0,0,0-6-6Z" fill="#1d2d5e"/><path d="M124.9,3h0" fill="none" stroke="#1d2d5e" stroke-linecap="round" stroke-linejoin="round" stroke-width="6"/><path d="M87.1,40.8A37.8,37.8,0,0,1,114.2,4.6" fill="none" stroke="#1d2d5e" stroke-linecap="round" stroke-linejoin="round" stroke-width="6"/><path d="M6.9,76.3v8.7a36,36,0,0,0,57.7,29.2,10.7,10.7,0,0,1,6.5-2.1H92a11.1,11.1,0,0,1,6.7,2.3,36,36,0,0,0,57.5-28.3V77.3" fill="none" stroke="#1d2d5e" stroke-linecap="round" stroke-linejoin="round" stroke-width="6"/><line x1="68.9" y1="112.3" x2="68.9" y2="104.8" fill="none" stroke="#1d2d5e" stroke-linecap="round" stroke-linejoin="round" stroke-width="5"/><line x1="96" y1="112.3" x2="96" y2="104.8" fill="none" stroke="#1d2d5e" stroke-linecap="round" stroke-linejoin="round" stroke-width="5"/></svg>