<svg id="Calque_2" data-name="Calque 2" xmlns="http://www.w3.org/2000/svg" viewBox="0 0 109 85.3"><title>game</title><path d="M107,53A24.6,24.6,0,0,0,82.3,28H29.7a24.9,24.9,0,0,0-25,24.3" fill="none" stroke="#1d2d5e" stroke-linecap="round" stroke-linejoin="round" stroke-width="4.11"/><path d="M8.8,27.7a29.8,29.8,0,0,0-6.8,7.9" fill="none" stroke="#1d2d5e" stroke-linecap="round" stroke-linejoin="round" stroke-width="4.11"/><path d="M15.2,23.9l-1.1.5" fill="none" stroke="#1d2d5e" stroke-linecap="round" stroke-linejoin="round" stroke-width="4.11"/><path d="M4.7,52.3a24.6,24.6,0,0,0,39.5,20,7.3,7.3,0,0,1,4.4-1.5H63a7.6,7.6,0,0,1,4.6,1.6A24.6,24.6,0,0,0,107,53" fill="none" stroke="#1d2d5e" stroke-linecap="round" stroke-linejoin="round" stroke-width="3.43"/><circle cx="93.4" cy="49.7" r="5.6" fill="#ff937e"/><circle cx="85.4" cy="63.5" r="5.8" fill="#ff937e"/><line x1="48.4" y1="61.6" x2="52.2" y2="61.6" fill="none" stroke="#1d2d5e" stroke-linecap="round" stroke-linejoin="round" stroke-width="4.11"/><line x1="59.7" y1="61.6" x2="63.5" y2="61.6" fill="none" stroke="#1d2d5e" stroke-linecap="round" stroke-linejoin="round" stroke-width="4.11"/><line x1="50.3" y1="38.3" x2="69.1" y2="38.3" fill="none" stroke="#1d2d5e" stroke-linecap="round" stroke-linejoin="round" stroke-width="4.11"/><line x1="43.6" y1="38.3" x2="44" y2="38.3" fill="none" stroke="#1d2d5e" stroke-linecap="round" stroke-linejoin="round" stroke-width="4.11"/><line x1="49.3" y1="45.6" x2="63.9" y2="45.6" fill="none" stroke="#1d2d5e" stroke-linecap="round" stroke-linejoin="round" stroke-width="4.11"/><path d="M27,66.2a1.4,1.4,0,0,1-1.4-1.4V60.3H21.1A1.4,1.4,0,0,1,19.8,59V53.8a1.4,1.4,0,0,1,1.4-1.4h4.5V47.9A1.4,1.4,0,0,1,27,46.5h5.2a1.4,1.4,0,0,1,1.4,1.4v4.5h4.5a1.4,1.4,0,0,1,1.4,1.4V59a1.4,1.4,0,0,1-1.4,1.4H33.6v4.5a1.4,1.4,0,0,1-1.4,1.4Z" fill="#46d0ae"/><path d="M32.2,47.9v5.9h5.9V59H32.2v5.9H27V59H21.1V53.8H27V47.9h5.2m0-2.7H27a2.7,2.7,0,0,0-2.7,2.7V51H21.1a2.7,2.7,0,0,0-2.7,2.7V59a2.7,2.7,0,0,0,2.7,2.7h3.1v3.1A2.7,2.7,0,0,0,27,67.6h5.2A2.7,2.7,0,0,0,35,64.8V61.7h3.1A2.7,2.7,0,0,0,40.8,59V53.8A2.7,2.7,0,0,0,38.1,51H35V47.9a2.7,2.7,0,0,0-2.7-2.7Z" fill="#46d0ae"/><path d="M90,43.4a2.9,2.9,0,1,1-2.9,2.9A2.9,2.9,0,0,1,90,43.4m0-4.1a7,7,0,1,0,7,7,7,7,0,0,0-7-7Z" fill="#1d2d5e"/><path d="M81.9,57.1A2.9,2.9,0,1,1,79,60a2.9,2.9,0,0,1,2.9-2.9m0-4.1a7,7,0,1,0,7,7,7,7,0,0,0-7-7Z" fill="#1d2d5e"/><path d="M28.1,43.8v5.9H34v5.2H28.1v5.9H22.9V54.8H17V49.7h5.9V43.8h5.2m0-4.1H22.9a4.1,4.1,0,0,0-4.1,4.1v1.8H17a4.1,4.1,0,0,0-4.1,4.1v5.2A4.1,4.1,0,0,0,17,59h1.8v1.8a4.1,4.1,0,0,0,4.1,4.1h5.2a4.1,4.1,0,0,0,4.1-4.1V59H34a4.1,4.1,0,0,0,4.1-4.1V49.7A4.1,4.1,0,0,0,34,45.6H32.2V43.8a4.1,4.1,0,0,0-4.1-4.1Z" fill="#1d2d5e"/><path d="M85.6,2.1h0" fill="none" stroke="#1d2d5e" stroke-linecap="round" stroke-linejoin="round" stroke-width="4.11"/><path d="M59.7,28A25.9,25.9,0,0,1,78.3,3.1" fill="none" stroke="#1d2d5e" stroke-linecap="round" stroke-linejoin="round" stroke-width="4.11"/><path d="M4.7,52.3v6a24.6,24.6,0,0,0,39.5,20,7.3,7.3,0,0,1,4.4-1.5H63a7.6,7.6,0,0,1,4.6,1.6A24.6,24.6,0,0,0,107,59V53" fill="none" stroke="#1d2d5e" stroke-linecap="round" stroke-linejoin="round" stroke-width="4.11"/><line x1="47.2" y1="76.9" x2="47.2" y2="71.8" fill="none" stroke="#1d2d5e" stroke-linecap="round" stroke-linejoin="round" stroke-width="3.43"/><line x1="65.8" y1="76.9" x2="65.8" y2="71.8" fill="none" stroke="#1d2d5e" stroke-linecap="round" stroke-linejoin="round" stroke-width="3.43"/></svg>