<svg id="Calque_2" data-name="Calque 2" xmlns="http://www.w3.org/2000/svg" viewBox="0 0 98.7 131.5"><title>iot</title><ellipse cx="48.6" cy="48.7" rx="40.6" ry="12.5" fill="#eae200"/><path d="M3,55.5c0-7.3,18.4-13.2,41.1-13.2s41.1,5.9,41.1,13.2" fill="none" stroke="#1d2d5e" stroke-linecap="round" stroke-linejoin="round" stroke-width="6"/><path d="M70.7,65.5a103.9,103.9,0,0,1-26.7,3.2C21.4,68.7,3,62.8,3,55.5v59.8c0,6.5,14.6,11.9,33.8,13l.5.2h6.7c22.7,0,41.1-5.9,41.1-13.2V55.5" fill="none" stroke="#1d2d5e" stroke-linecap="round" stroke-linejoin="round" stroke-width="6"/><line x1="44.1" y1="106.7" x2="44.1" y2="106.7" fill="none" stroke="#46d0ae" stroke-linecap="round" stroke-linejoin="round" stroke-width="12.97"/><path d="M33.8,30.6c3.2-.3,6.6-.5,10.2-.5s6.8.2,10,.4" fill="none" stroke="#ff937e" stroke-linecap="round" stroke-linejoin="round" stroke-width="6"/><path d="M27.2,17.8A104.8,104.8,0,0,1,44,16.6a104.8,104.8,0,0,1,16.8,1.3" fill="none" stroke="#ff937e" stroke-linecap="round" stroke-linejoin="round" stroke-width="6"/><path d="M20.6,5.7A94.8,94.8,0,0,1,44,3,95.7,95.7,0,0,1,66.8,5.5" fill="none" stroke="#ff937e" stroke-linecap="round" stroke-linejoin="round" stroke-width="6"/><line x1="12.8" y1="88.9" x2="12.8" y2="105.8" fill="none" stroke="#1d2d5e" stroke-linecap="round" stroke-linejoin="round" stroke-width="5"/><line x1="12.8" y1="77.5" x2="12.8" y2="79.4" fill="none" stroke="#1d2d5e" stroke-linecap="round" stroke-linejoin="round" stroke-width="5"/><line x1="96.2" y1="69.4" x2="96.2" y2="86.2" fill="none" stroke="#1d2d5e" stroke-linecap="round" stroke-linejoin="round" stroke-width="5"/><line x1="96.2" y1="96.3" x2="96.2" y2="98" fill="none" stroke="#1d2d5e" stroke-linecap="round" stroke-linejoin="round" stroke-width="5"/></svg>