<svg id="Calque_2" data-name="Calque 2" xmlns="http://www.w3.org/2000/svg" viewBox="0 0 151.4 128.6"><title>js</title><path d="M53.9,85.1l-2.4.2a18,18,0,1,1,0-36.1l2.4.2V24.9H44.4v8.9a34,34,0,0,0-9.1,3.3l-5.7-6.8L18.8,39.3l5.8,6.9a34.3,34.3,0,0,0-4.8,8.3L11,53,8.5,66.9l8.8,1.6A34.1,34.1,0,0,0,19,77.9l-7.7,4.5,7.1,12.2L26,90.1a34.5,34.5,0,0,0,7.4,6.2l-3.1,8.4,13.3,4.8,3.1-8.4a34.3,34.3,0,0,0,4.8.3h2.4Z" fill="#eae200"/><path d="M143,36.1H126.2a6,6,0,0,1-6-6V13.3a1.8,1.8,0,0,1,3.1-1.3L144.2,33A1.8,1.8,0,0,1,143,36.1Z" fill="#46d0ae"/><path d="M95.9,117.1H58.1a4.2,4.2,0,0,1-4.2-4.2V7.2A4.2,4.2,0,0,1,58.1,3h56.9a13.3,13.3,0,0,1,9.4,3.9l13,13a13.3,13.3,0,0,1,3.9,9.4V82.1" fill="none" stroke="#1d2d5e" stroke-linecap="round" stroke-linejoin="round" stroke-width="6"/><path d="M114.2,13.6V24.1a6,6,0,0,0,6,6h21.1" fill="none" stroke="#1d2d5e" stroke-linecap="round" stroke-linejoin="round" stroke-width="6"/><line x1="69.8" y1="39.1" x2="98.5" y2="39.1" fill="none" stroke="#1d2d5e" stroke-linecap="round" stroke-linejoin="round" stroke-width="6"/><line x1="125.4" y1="53.9" x2="125.4" y2="53.9" fill="none" stroke="#1d2d5e" stroke-linecap="round" stroke-linejoin="round" stroke-width="6"/><line x1="69.8" y1="53.9" x2="115.3" y2="53.9" fill="none" stroke="#1d2d5e" stroke-linecap="round" stroke-linejoin="round" stroke-width="6"/><line x1="69.8" y1="68.7" x2="101.6" y2="68.7" fill="none" stroke="#1d2d5e" stroke-linecap="round" stroke-linejoin="round" stroke-width="6"/><path d="M106.5,112.9a3.5,3.5,0,0,1,3.6,3.6v.5a3.6,3.6,0,0,1-7.3,0v-.5A3.5,3.5,0,0,1,106.5,112.9Z" fill="#ff937e"/><path d="M115.9,128.6c-2-.1-3.4-.9-3.4-2.6a2.5,2.5,0,0,1,2.5-2.6h.4c1.4,0,2.3-.9,2.3-2.9V95.9a3.1,3.1,0,0,1,3.1-3.1,3.1,3.1,0,0,1,3.1,3.1v24.7c0,5.5-2.9,8-7.5,8Zm1.3-42.9a3.6,3.6,0,0,1,7.1,0v.3a3.6,3.6,0,0,1-7.1,0Z" fill="#ff937e"/><path d="M131,117.5a2.4,2.4,0,0,1-1.2-2.2,2.5,2.5,0,0,1,2.5-2.5,2.7,2.7,0,0,1,1.3.4,14.3,14.3,0,0,0,7.8,2.6c2.7,0,4.2-1.1,4.2-2.9h0c0-2.1-2.9-2.8-6.1-3.8s-8.5-2.8-8.5-8h0c0-5.1,4.3-8.3,9.7-8.3a18.7,18.7,0,0,1,8.5,2.2,2.6,2.6,0,0,1,1.5,2.4,2.5,2.5,0,0,1-2.6,2.5,2.4,2.4,0,0,1-1.2-.3,14.8,14.8,0,0,0-6.4-1.9c-2.4,0-3.8,1.1-3.8,2.7h0c0,2,2.9,2.8,6.1,3.9s8.4,3,8.4,7.9h0c0,5.7-4.4,8.5-10.1,8.5A18.6,18.6,0,0,1,131,117.5Z" fill="#ff937e"/><path d="M45.5,21.8H38.4v8.9A34,34,0,0,0,29.4,34l-5.7-6.8L12.8,36.3l5.8,6.9a34.3,34.3,0,0,0-4.8,8.3L5,49.9,2.5,63.8l8.8,1.6A34.1,34.1,0,0,0,13,74.9L5.2,79.3l7.1,12.2L20,87.1a34.5,34.5,0,0,0,7.4,6.2l-3.1,8.4,13.3,4.8,3.1-8.4a34.3,34.3,0,0,0,4.8.3m0-16.2h0a18,18,0,0,1,0-36.1m0,36.1" fill="none" stroke="#1d2d5e" stroke-linecap="round" stroke-linejoin="round" stroke-width="5"/></svg>