<svg id="Calque_2" data-name="Calque 2" xmlns="http://www.w3.org/2000/svg" viewBox="0 0 182.9 136.6"><title>laptop</title><circle cx="99.7" cy="44.4" r="10.3" fill="#ff937e"/><path d="M100.6,90.6a34.2,34.2,0,0,0,14-2.9V72.3a5.9,5.9,0,0,0-5.9-5.9H92.5a5.9,5.9,0,0,0-5.9,5.9V87.7A35.7,35.7,0,0,0,100.6,90.6Z" fill="#ff937e"/><path d="M3,17.1v97.6c0,4.4,7.4,8,16.6,8H163.3c9.2,0,16.6-3.6,16.6-8V11c0-4.4-7.4-8-16.6-8H19.6C10.4,3.1,3,6.6,3,11v6.1" fill="none" stroke="#202f5b" stroke-linecap="round" stroke-linejoin="round" stroke-width="5"/><path d="M80,3.1H20a8,8,0,0,0-8,8v6.1" fill="none" stroke="#202f5b" stroke-linecap="round" stroke-linejoin="round" stroke-width="4"/><path d="M12.1,17.1v97.6a8,8,0,0,0,8,8H80" fill="none" stroke="#202f5b" stroke-linecap="round" stroke-linejoin="round" stroke-width="4"/><line x1="149" y1="15" x2="43.2" y2="15" fill="none" stroke="#202f5b" stroke-linecap="round" stroke-linejoin="round" stroke-width="5"/><path d="M164.3,133.7c0-.4-136.3.4-136.3.4" fill="none" stroke="#202f5b" stroke-linecap="round" stroke-linejoin="round" stroke-width="5"/><circle cx="95.9" cy="40.1" r="10.3" fill="none" stroke="#202f5b" stroke-linecap="round" stroke-linejoin="round" stroke-width="5"/><path d="M95.9,85a35.7,35.7,0,0,0,14.3-3l-.3-.5V66.7a5.9,5.9,0,0,0-5.9-5.9H87.7a5.9,5.9,0,0,0-5.9,5.9V82.1A35.7,35.7,0,0,0,95.9,85Z" fill="none" stroke="#202f5b" stroke-linecap="round" stroke-linejoin="round" stroke-width="5"/><circle cx="52.5" cy="58.5" r="10.3" fill="#46d0ae"/><path d="M53.5,104.7a34.2,34.2,0,0,0,14-2.9V86.4a5.9,5.9,0,0,0-5.9-5.9H45.4a5.9,5.9,0,0,0-5.9,5.9v15.4A35.7,35.7,0,0,0,53.5,104.7Z" fill="#46d0ae"/><circle cx="48.7" cy="54.2" r="10.3" fill="none" stroke="#202f5b" stroke-linecap="round" stroke-linejoin="round" stroke-width="5"/><path d="M48.7,99.1a35.7,35.7,0,0,0,14.3-3l-.3-.5V80.8a5.9,5.9,0,0,0-5.9-5.9H40.6a5.9,5.9,0,0,0-5.9,5.9V96.2A35.7,35.7,0,0,0,48.7,99.1Z" fill="none" stroke="#202f5b" stroke-linecap="round" stroke-linejoin="round" stroke-width="5"/><circle cx="145.2" cy="59" r="10.3" fill="#eae200"/><path d="M146.2,105.2a34.2,34.2,0,0,0,14-2.9V86.9a5.9,5.9,0,0,0-5.9-5.9H138a5.9,5.9,0,0,0-5.9,5.9v15.4A35.7,35.7,0,0,0,146.2,105.2Z" fill="#eae200"/><circle cx="141.4" cy="54.7" r="10.3" fill="none" stroke="#202f5b" stroke-linecap="round" stroke-linejoin="round" stroke-width="5"/><path d="M141.4,99.6a35.7,35.7,0,0,0,14.3-3l-.3-.5V81.3a5.9,5.9,0,0,0-5.9-5.9H133.3a5.9,5.9,0,0,0-5.9,5.9V96.7A35.7,35.7,0,0,0,141.4,99.6Z" fill="none" stroke="#202f5b" stroke-linecap="round" stroke-linejoin="round" stroke-width="5"/></svg>
