<svg id="Calque_2" data-name="Calque 2" xmlns="http://www.w3.org/2000/svg" viewBox="0 0 90.2 86.3"><title>mobile</title><path d="M12.4,0H63.7a0,0,0,0,1,0,0V61.7a0,0,0,0,1,0,0H18.4a6,6,0,0,1-6-6V0A0,0,0,0,1,12.4,0Z" transform="translate(76.1 61.7) rotate(-180)" fill="#46d0ae"/><path d="M2.1,14V78.9a5.3,5.3,0,0,0,5.3,5.3H53.3a5.3,5.3,0,0,0,5.3-5.3V9.9a5.3,5.3,0,0,0-5.3-5.3H7.4A5.3,5.3,0,0,0,2.1,9.9V14" fill="none" stroke="#1d2d5e" stroke-linecap="round" stroke-linejoin="round" stroke-width="4.11"/><path d="M53.3,4.6H13.4A5.3,5.3,0,0,0,8.1,9.9V14" fill="none" stroke="#1d2d5e" stroke-linecap="round" stroke-linejoin="round" stroke-width="2.74"/><path d="M8.1,14V78.9a5.3,5.3,0,0,0,5.3,5.3H53.3" fill="none" stroke="#1d2d5e" stroke-linecap="round" stroke-linejoin="round" stroke-width="2.74"/><line x1="39.7" y1="12.6" x2="28.8" y2="12.6" fill="none" stroke="#1d2d5e" stroke-linecap="round" stroke-linejoin="round" stroke-width="4.11"/><circle cx="33.3" cy="74.7" r="3.4" fill="#ff937e"/><path d="M58.6,66.2c0-.3-41.2.3-41.2.3" fill="none" stroke="#1d2d5e" stroke-linecap="round" stroke-linejoin="round" stroke-width="3.43"/><line x1="50.6" y1="47" x2="50.6" y2="32.8" fill="none" stroke="#fff" stroke-linecap="round" stroke-linejoin="round" stroke-width="4.11"/><line x1="50.6" y1="27" x2="50.6" y2="25.2" fill="none" stroke="#fff" stroke-linecap="round" stroke-linejoin="round" stroke-width="4.11"/><line x1="88.1" y1="36.7" x2="88.1" y2="36.7" fill="none" stroke="#1d2d5e" stroke-linecap="round" stroke-linejoin="round" stroke-width="4.11"/><line x1="72.1" y1="36.7" x2="81.5" y2="36.7" fill="none" stroke="#1d2d5e" stroke-linecap="round" stroke-linejoin="round" stroke-width="4.11"/><line x1="72.1" y1="27.3" x2="78.8" y2="24.2" fill="none" stroke="#1d2d5e" stroke-linecap="round" stroke-linejoin="round" stroke-width="4.11"/><line x1="72.1" y1="46" x2="78.8" y2="49.1" fill="none" stroke="#1d2d5e" stroke-linecap="round" stroke-linejoin="round" stroke-width="4.11"/></svg>