<svg id="Calque_2" data-name="Calque 2" xmlns="http://www.w3.org/2000/svg" viewBox="0 0 86.2 86.2"><title>rocket</title><path d="M45.2,75.4l5.3,5.3a5,5,0,0,0,7.9-1.1L61.4,74c3.2-5.7,6.3-11.6,5.3-16.7l-1.1-6.1" fill="#ff937e"/><path d="M16.3,46.5,11,41.3a5,5,0,0,1,1.1-7.9l5.5-3.1C23.4,27.1,29.2,24,34.4,25l6.1,1.1" fill="#ff937e"/><path d="M79.8,20.4c2.1-5.8,2.4-10.7-.4-13.5C68.8-3.7,30.6,28.4,14.2,43.1c-4.1,3.7-5,9.4-1.9,12.5L30.6,73.9c3.1,3.1,8.8,2.2,12.5-1.9,7.3-8.2,19.1-21.8,27.6-34.8" fill="none" stroke="#1d2d5e" stroke-linecap="round" stroke-linejoin="round" stroke-width="4.11"/><path d="M76.4,27.8l1.1-2.2" fill="none" stroke="#1d2d5e" stroke-linecap="round" stroke-linejoin="round" stroke-width="4.11"/><line x1="4.3" y1="81.9" x2="4.3" y2="81.9" fill="none" stroke="#1d2d5e" stroke-linecap="round" stroke-linejoin="round" stroke-width="4.11"/><line x1="15.6" y1="70.6" x2="9" y2="77.2" fill="none" stroke="#1d2d5e" stroke-linecap="round" stroke-linejoin="round" stroke-width="4.11"/><line x1="22.2" y1="77.2" x2="19.7" y2="84.1" fill="none" stroke="#1d2d5e" stroke-linecap="round" stroke-linejoin="round" stroke-width="4.11"/><line x1="9" y1="64" x2="2.1" y2="66.5" fill="none" stroke="#1d2d5e" stroke-linecap="round" stroke-linejoin="round" stroke-width="4.11"/><line x1="24.9" y1="53.8" x2="31.7" y2="60.5" fill="none" stroke="#1d2d5e" stroke-linecap="round" stroke-linejoin="round" stroke-width="4.11"/><line x1="36.8" y1="65.7" x2="36.8" y2="65.7" fill="none" stroke="#1d2d5e" stroke-linecap="round" stroke-linejoin="round" stroke-width="4.11"/><circle cx="51.7" cy="40" r="5.3" transform="translate(-13.1 48.3) rotate(-45)" fill="#46d0ae"/><path d="M43.1,72l5.3,5.3a5,5,0,0,0,7.9-1.1l3.1-5.5c3.2-5.7,6.3-11.6,5.3-16.7l-1.1-6.1" fill="none" stroke="#1d2d5e" stroke-linecap="round" stroke-linejoin="round" stroke-width="4.11"/><path d="M14.2,43.1,9,37.8a5,5,0,0,1,1.1-7.9l5.5-3.1c5.7-3.2,11.6-6.3,16.7-5.3l6.1,1.1" fill="none" stroke="#1d2d5e" stroke-linecap="round" stroke-linejoin="round" stroke-width="4.11"/><circle cx="49.7" cy="36.5" r="5.3" transform="translate(-11.3 45.8) rotate(-45)" fill="none" stroke="#1d2d5e" stroke-linecap="round" stroke-linejoin="round" stroke-width="4.11"/><line x1="60.3" y1="8.8" x2="67.7" y2="16.2" fill="none" stroke="#1d2d5e" stroke-linecap="round" stroke-linejoin="round" stroke-width="4.11"/><line x1="79.3" y1="6.9" x2="84.1" y2="2.1" fill="none" stroke="#1d2d5e" stroke-linecap="round" stroke-linejoin="round" stroke-width="4.11"/></svg>