<svg id="Calque_2" data-name="Calque 2" xmlns="http://www.w3.org/2000/svg" viewBox="0 0 125.8 125.8"><title>startup</title><path d="M65.9,110.1l7.7,7.7a7.3,7.3,0,0,0,11.6-1.6l4.5-8.1c4.6-8.4,9.1-16.9,7.7-24.4l-1.6-8.9" fill="#ff937e"/><path d="M23.7,67.9l-7.7-7.7a7.3,7.3,0,0,1,1.6-11.6l8.1-4.5c8.4-4.6,16.9-9.1,24.4-7.7L59.1,38" fill="#ff937e"/><path d="M116.4,29.7c3.1-8.5,3.5-15.6-.7-19.7-15.4-15.4-71.2,31.4-95,52.8-6,5.4-7.3,13.7-2.8,18.2l26.7,26.7c4.5,4.5,12.9,3.2,18.2-2.8,10.7-11.9,27.8-31.9,40.3-50.8" fill="none" stroke="#1d2d5e" stroke-linecap="round" stroke-linejoin="round" stroke-width="6"/><path d="M111.5,40.6l1.7-3.3" fill="none" stroke="#1d2d5e" stroke-linecap="round" stroke-linejoin="round" stroke-width="6"/><line x1="6.3" y1="119.5" x2="6.3" y2="119.5" fill="none" stroke="#1d2d5e" stroke-linecap="round" stroke-linejoin="round" stroke-width="6"/><line x1="22.8" y1="103.1" x2="13.1" y2="112.7" fill="none" stroke="#1d2d5e" stroke-linecap="round" stroke-linejoin="round" stroke-width="6"/><line x1="32.4" y1="112.7" x2="28.7" y2="122.8" fill="none" stroke="#1d2d5e" stroke-linecap="round" stroke-linejoin="round" stroke-width="6"/><line x1="13.1" y1="93.4" x2="3" y2="97.1" fill="none" stroke="#1d2d5e" stroke-linecap="round" stroke-linejoin="round" stroke-width="6"/><line x1="36.3" y1="78.5" x2="46.2" y2="88.4" fill="none" stroke="#1d2d5e" stroke-linecap="round" stroke-linejoin="round" stroke-width="6"/><line x1="53.7" y1="95.8" x2="53.7" y2="95.8" fill="none" stroke="#1d2d5e" stroke-linecap="round" stroke-linejoin="round" stroke-width="6"/><circle cx="75.5" cy="58.3" r="7.8" transform="translate(-19.1 70.5) rotate(-45)" fill="#46d0ae"/><path d="M62.9,105.1l7.7,7.7a7.3,7.3,0,0,0,11.6-1.6l4.5-8.1c4.6-8.4,9.1-16.9,7.7-24.4l-1.6-8.9" fill="none" stroke="#1d2d5e" stroke-linecap="round" stroke-linejoin="round" stroke-width="6"/><path d="M20.7,62.9l-7.7-7.7a7.3,7.3,0,0,1,1.6-11.6l8.1-4.5c8.4-4.6,16.9-9.1,24.4-7.7L56.1,33" fill="none" stroke="#1d2d5e" stroke-linecap="round" stroke-linejoin="round" stroke-width="6"/><circle cx="72.5" cy="53.3" r="7.8" transform="translate(-16.5 66.9) rotate(-45)" fill="none" stroke="#1d2d5e" stroke-linecap="round" stroke-linejoin="round" stroke-width="6"/><line x1="88.1" y1="12.9" x2="98.9" y2="23.7" fill="none" stroke="#1d2d5e" stroke-linecap="round" stroke-linejoin="round" stroke-width="6"/><line x1="115.8" y1="10" x2="122.8" y2="3" fill="none" stroke="#1d2d5e" stroke-linecap="round" stroke-linejoin="round" stroke-width="6"/></svg>