<svg id="Calque_2" data-name="Calque 2" xmlns="http://www.w3.org/2000/svg" viewBox="0 0 115.5 107.6"><title>tool</title><rect x="46.6" y="4.1" width="31" height="105.77" rx="15.5" ry="15.5" transform="translate(35.5 -23) rotate(29)" fill="#ff937e"/><path d="M60.4,12.4,2.8,32.3S7.5,51.5,29.6,44.2l3.4-1.2" fill="none" stroke="#1d2d5e" stroke-linecap="round" stroke-linejoin="round" stroke-width="5.54"/><line x1="38.1" y1="28.6" x2="24.1" y2="33.4" fill="none" stroke="#1d2d5e" stroke-linecap="round" stroke-linejoin="round" stroke-width="4.61"/><path d="M53.1,93l59.6-12.6s-12.2-11.7-35-7.1l-6,1.2" fill="none" stroke="#1d2d5e" stroke-linecap="round" stroke-linejoin="round" stroke-width="5.54"/><line x1="67.5" y1="19.3" x2="78.6" y2="25.5" fill="none" stroke="#fff" stroke-linecap="round" stroke-linejoin="round" stroke-width="4.61"/><line x1="76.1" y1="16.9" x2="69.9" y2="27.9" fill="none" stroke="#fff" stroke-linecap="round" stroke-linejoin="round" stroke-width="4.61"/><line x1="92.7" y1="31.1" x2="104.4" y2="59.4" fill="none" stroke="#1d2d5e" stroke-linecap="round" stroke-linejoin="round" stroke-width="5.54"/><rect x="41.6" y="-1.9" width="31" height="105.77" rx="15.5" ry="15.5" transform="translate(31.9 -21.3) rotate(29)" fill="none" stroke="#1d2d5e" stroke-linecap="round" stroke-linejoin="round" stroke-width="5.54"/><path d="M59.4,101.5a15.5,15.5,0,0,1-17.7,1.9h0l-10-5.6" fill="none" stroke="#1d2d5e" stroke-linecap="round" stroke-linejoin="round" stroke-width="4.61"/><path d="M83.6,4.7l9.9,5.5h0a15.5,15.5,0,0,1,6,21.1L82.2,62.4" fill="none" stroke="#1d2d5e" stroke-linecap="round" stroke-linejoin="round" stroke-width="4.61"/><circle cx="40" cy="82.7" r="2.6" transform="translate(-0.1 0.1) rotate(-0.1)" fill="#1d2d5e"/></svg>