<svg id="Calque_2" data-name="Calque 2" xmlns="http://www.w3.org/2000/svg" viewBox="0 0 153.5 136.8"><title>web</title><rect x="20.7" y="36.1" width="64.7" height="43.28" fill="#eae200"/><path d="M57,110.4H6.3A3.3,3.3,0,0,1,3,107.1V6.3A3.3,3.3,0,0,1,6.3,3H130.8a3.3,3.3,0,0,1,3.3,3.3V36.9" fill="none" stroke="#1d2d5e" stroke-linecap="round" stroke-linejoin="round" stroke-width="6"/><path d="M134.1,92v14a4.4,4.4,0,0,1-4.4,4.4H114" fill="none" stroke="#1d2d5e" stroke-linecap="round" stroke-linejoin="round" stroke-width="6"/><line x1="3" y1="18.5" x2="122" y2="18.5" fill="none" stroke="#1d2d5e" stroke-linecap="round" stroke-linejoin="round" stroke-width="5"/><rect x="14.7" y="30.1" width="64.7" height="43.28" fill="none" stroke="#1d2d5e" stroke-linecap="round" stroke-linejoin="round" stroke-width="4"/><line x1="14.7" y1="30.1" x2="79.4" y2="30.1" fill="#1d2d5e"/><rect x="90.3" y="30.1" width="31.6" height="19.95" fill="none" stroke="#1d2d5e" stroke-linecap="round" stroke-linejoin="round" stroke-width="4"/><polyline points="90.3 79.2 90.3 59.2 108.8 59.2" fill="none" stroke="#1d2d5e" stroke-linecap="round" stroke-linejoin="round" stroke-width="4"/><line x1="77.5" y1="84.2" x2="79.4" y2="84.2" fill="none" stroke="#1d2d5e" stroke-linecap="round" stroke-linejoin="round" stroke-width="4"/><line x1="14.7" y1="84.2" x2="68.5" y2="84.2" fill="none" stroke="#1d2d5e" stroke-linecap="round" stroke-linejoin="round" stroke-width="4"/><line x1="14.7" y1="94.4" x2="69.7" y2="94.4" fill="none" stroke="#1d2d5e" stroke-linecap="round" stroke-linejoin="round" stroke-width="4"/><line x1="14.7" y1="30.1" x2="79.4" y2="73.4" fill="none" stroke="#1d2d5e" stroke-linecap="round" stroke-linejoin="round" stroke-width="4"/><line x1="37.8" y1="57.9" x2="14.7" y2="73.4" fill="none" stroke="#1d2d5e" stroke-linecap="round" stroke-linejoin="round" stroke-width="4"/><line x1="79.4" y1="30.1" x2="54.1" y2="47" fill="none" stroke="#1d2d5e" stroke-linecap="round" stroke-linejoin="round" stroke-width="4"/><path d="M140.9,81.3,86.4,135.8a3.5,3.5,0,0,1-4.9,0L71,125.3a3.5,3.5,0,0,1,0-4.9l61.6-61.6a3.5,3.5,0,0,1,4.9,0l13,13" fill="#46d0ae"/><path d="M140.9,72.3,86.4,126.8a3.5,3.5,0,0,1-4.9,0L71,116.3a3.5,3.5,0,0,1,0-4.9l61.6-61.6a3.5,3.5,0,0,1,4.9,0l13,13" fill="none" stroke="#1d2d5e" stroke-linecap="round" stroke-linejoin="round" stroke-width="6"/><line x1="126.4" y1="56" x2="130.3" y2="59.9" fill="none" stroke="#1d2d5e" stroke-linecap="round" stroke-linejoin="round" stroke-width="5"/><line x1="116.6" y1="65.7" x2="120.5" y2="69.7" fill="none" stroke="#1d2d5e" stroke-linecap="round" stroke-linejoin="round" stroke-width="5"/><line x1="106.8" y1="75.5" x2="110.8" y2="79.5" fill="none" stroke="#1d2d5e" stroke-linecap="round" stroke-linejoin="round" stroke-width="5"/><line x1="97" y1="85.3" x2="101" y2="89.3" fill="none" stroke="#1d2d5e" stroke-linecap="round" stroke-linejoin="round" stroke-width="5"/><line x1="87.2" y1="95.1" x2="91.2" y2="99" fill="none" stroke="#1d2d5e" stroke-linecap="round" stroke-linejoin="round" stroke-width="5"/><line x1="77.5" y1="104.9" x2="81.4" y2="108.8" fill="none" stroke="#1d2d5e" stroke-linecap="round" stroke-linejoin="round" stroke-width="5"/><line x1="12.4" y1="11.1" x2="12.4" y2="11.1" fill="none" stroke="#ff937e" stroke-linecap="round" stroke-linejoin="round" stroke-width="5"/><line x1="20.1" y1="11.1" x2="20.1" y2="11.1" fill="none" stroke="#eae200" stroke-linecap="round" stroke-linejoin="round" stroke-width="5"/><line x1="27.8" y1="11.1" x2="27.8" y2="11.1" fill="none" stroke="#46d0ae" stroke-linecap="round" stroke-linejoin="round" stroke-width="5"/></svg>