<svg id="Calque_2" data-name="Calque 2" xmlns="http://www.w3.org/2000/svg" viewBox="0 0 278.5 47"><title>hello-world</title><path d="M50.2,36.2a3.1,3.1,0,0,1,.4,1.6,4.7,4.7,0,0,1-.9,3.1q-4.9,6-10.5,6a9.2,9.2,0,0,1-7.7-3.7q-2.9-3.7-2.9-10.7,0-1.7.1-3.4a70.2,70.2,0,0,1-7.2.9l-3.5.2q-1,5.1-2.8,12.4-1,4.3-4,4.3T8.1,44.2a9,9,0,0,1,.2-1.8Q10,35.6,11,30.8H8.6a3.9,3.9,0,0,1-2.4-.6,2.2,2.2,0,0,1-.7-1.9,2.9,2.9,0,0,1,.9-2.4,5.4,5.4,0,0,1,3.1-.9h2.6a64,64,0,0,0,1.3-10.7,5.2,5.2,0,0,0-.7-3.2,2.3,2.3,0,0,0-1.8-.8q-3.5,0-7.8,5.8a1.8,1.8,0,0,1-1.4.8,1.5,1.5,0,0,1-1.2-.6A2.6,2.6,0,0,1,0,14.8a5.7,5.7,0,0,1,1.2-3.3,17.9,17.9,0,0,1,5.5-5,13.2,13.2,0,0,1,6.8-2,6,6,0,0,1,5,2.2q1.8,2.2,1.8,6.9a71,71,0,0,1-1.2,11.2l4.9-.2,5.4-.5A51.5,51.5,0,0,1,32,13.9a24.2,24.2,0,0,1,4.6-7.7,8.1,8.1,0,0,1,6.1-3,4.6,4.6,0,0,1,3.9,2,8.5,8.5,0,0,1,1.4,5.1q0,12.3-12.6,17.1-.1,2-.1,4.1,0,5.2,1.3,7.4A4,4,0,0,0,40.3,41,6.8,6.8,0,0,0,44,40a17.6,17.6,0,0,0,3.8-3.7,1.7,1.7,0,0,1,1.3-.7A1.1,1.1,0,0,1,50.2,36.2ZM40.2,9.4a25.2,25.2,0,0,0-2.3,5.4,50.8,50.8,0,0,0-1.7,7.5A12,12,0,0,0,42,17.7a14.5,14.5,0,0,0,1.9-7.8,3.4,3.4,0,0,0-.4-1.8,1.2,1.2,0,0,0-1-.6Q41.4,7.5,40.2,9.4Z" fill="#46d0ae"/><path d="M71,36.2a3.1,3.1,0,0,1,.4,1.6,4.6,4.6,0,0,1-.9,3.1A18.1,18.1,0,0,1,65.2,45a14.4,14.4,0,0,1-7.2,1.9q-5.2,0-8.1-2.8a10.4,10.4,0,0,1-2.9-7.7A14.4,14.4,0,0,1,48.5,30a11.8,11.8,0,0,1,4-4.7,10.1,10.1,0,0,1,5.8-1.7,6.3,6.3,0,0,1,4.6,1.7,6.2,6.2,0,0,1,1.7,4.6,8,8,0,0,1-2.5,5.9q-2.5,2.5-8.3,3.9Q55.1,42,58.6,42a10.9,10.9,0,0,0,5.1-1.6,16.8,16.8,0,0,0,4.9-4.1,1.7,1.7,0,0,1,1.3-.7A1.1,1.1,0,0,1,71,36.2ZM54.4,30.5a10,10,0,0,0-1.3,5.2h0a11.3,11.3,0,0,0,4.6-2.1,4.1,4.1,0,0,0,1.7-3.2,2.2,2.2,0,0,0-.5-1.5,1.8,1.8,0,0,0-1.4-.6A3.6,3.6,0,0,0,54.4,30.5Z" fill="#46d0ae"/><path d="M87.2,36.2a3.1,3.1,0,0,1,.4,1.6,4.6,4.6,0,0,1-.9,3.1A21.4,21.4,0,0,1,82,45.2a9.9,9.9,0,0,1-5.7,1.7,6.9,6.9,0,0,1-6.5-4,21.8,21.8,0,0,1-2.1-10.3,70.6,70.6,0,0,1,1.6-13.8A46.9,46.9,0,0,1,73.9,5.6Q76.9,0,81.2,0a4.2,4.2,0,0,1,3.8,2.2,12.1,12.1,0,0,1,1.4,6.3q0,5.9-3.3,13.7a75.9,75.9,0,0,1-8.9,15.4,5.8,5.8,0,0,0,1.1,2.9,2.7,2.7,0,0,0,2.1.9,5.8,5.8,0,0,0,3.6-1.2,27.2,27.2,0,0,0,3.9-4,1.7,1.7,0,0,1,1.3-.7A1.1,1.1,0,0,1,87.2,36.2ZM77.5,9a67.6,67.6,0,0,0-2.5,10.2A74,74,0,0,0,73.8,31a64,64,0,0,0,5.6-11.6A31.9,31.9,0,0,0,81.5,8.7q0-3.8-1.4-3.8T77.5,9Z" fill="#46d0ae"/><path d="M103.4,36.2a3.1,3.1,0,0,1,.4,1.6,4.6,4.6,0,0,1-.9,3.1,21.4,21.4,0,0,1-4.6,4.3,9.9,9.9,0,0,1-5.7,1.7A6.9,6.9,0,0,1,86,43a21.8,21.8,0,0,1-2.1-10.3,70.6,70.6,0,0,1,1.6-13.8A46.9,46.9,0,0,1,90.1,5.6Q93.1,0,97.3,0a4.2,4.2,0,0,1,3.7,2.2,12.1,12.1,0,0,1,1.4,6.3q0,5.9-3.3,13.7a75.9,75.9,0,0,1-8.9,15.4,5.8,5.8,0,0,0,1.1,2.9,2.7,2.7,0,0,0,2.1.9,5.8,5.8,0,0,0,3.6-1.2,27.2,27.2,0,0,0,3.9-4,1.7,1.7,0,0,1,1.3-.7A1.1,1.1,0,0,1,103.4,36.2ZM93.7,9a67.6,67.6,0,0,0-2.5,10.2A74,74,0,0,0,89.9,31a64,64,0,0,0,5.6-11.6A31.9,31.9,0,0,0,97.6,8.7q0-3.8-1.4-3.8T93.7,9Z" fill="#46d0ae"/><path d="M194.4,25.7a1.7,1.7,0,0,1,.5,1.3,3.6,3.6,0,0,1-.8,2.3,3,3,0,0,1-2.4,1,33,33,0,0,1-7.1-.6A43.1,43.1,0,0,1,176.3,42q-4.9,4.9-9.7,4.9t-6.6-4.6q-2.2-4.6-2.5-12.4-3,8.6-6.7,12.9t-8,4.2q-4.8,0-7.2-5.9t-2.4-16a110.3,110.3,0,0,1,1.3-16,6.3,6.3,0,0,1,1.3-3.5,3.8,3.8,0,0,1,2.9-1,3.7,3.7,0,0,1,2.3.6,2.9,2.9,0,0,1,.8,2.4q0,.3-.1,1.3a122.6,122.6,0,0,0-1.5,17.3,35.8,35.8,0,0,0,1.1,10.3q1.1,3.6,3.1,3.6t4.2-3.7a47.2,47.2,0,0,0,4.9-10.8,112.7,112.7,0,0,0,4.1-17.1,5.1,5.1,0,0,1,1.5-3.2,4.5,4.5,0,0,1,2.9-.9,3.2,3.2,0,0,1,2.3.7,2.6,2.6,0,0,1,.7,2,6,6,0,0,1-.1,1.2,95.4,95.4,0,0,0-1.4,16.2,81.8,81.8,0,0,0,.4,8.8,12.2,12.2,0,0,0,1.4,5,3.4,3.4,0,0,0,3.1,1.7q2.4,0,5.3-3.6a41,41,0,0,0,5.4-9,12.3,12.3,0,0,1-4.6-4.9,15,15,0,0,1-1.5-6.9,16.1,16.1,0,0,1,1.2-6.6,9,9,0,0,1,3.3-4,8.6,8.6,0,0,1,4.7-1.3,6.2,6.2,0,0,1,5,2.3,9.6,9.6,0,0,1,1.9,6.3,37.6,37.6,0,0,1-2.4,12.5,34.7,34.7,0,0,0,6,.4A2.4,2.4,0,0,1,194.4,25.7Zm-13.2-3.1a29.2,29.2,0,0,0,1.9-9.2,6.5,6.5,0,0,0-.5-3.1,1.7,1.7,0,0,0-1.5-1,2.5,2.5,0,0,0-2.2,1.6,9.5,9.5,0,0,0-.8,4.4Q178,20.3,181.2,22.6Z" fill="#46d0ae"/><path d="M211.5,44.9a19,19,0,0,1-.8-6.4,40.4,40.4,0,0,1,1.8-12.3,3.7,3.7,0,0,1,1.5-2.1,5.2,5.2,0,0,1,2.9-.7,2.8,2.8,0,0,1,1.4.2,1,1,0,0,1,.4.9,18.9,18.9,0,0,1-.7,3.6q-.5,2-.8,3.5a35.3,35.3,0,0,0-.5,3.7,28.2,28.2,0,0,1,3.7-7,14.4,14.4,0,0,1,4-3.8,7.3,7.3,0,0,1,3.6-1.1q3.2,0,3.2,3.2a25,25,0,0,1-.4,3.1,18.4,18.4,0,0,0-.4,2.5q0,1.7,1.2,1.7t3.6-2.2a1.9,1.9,0,0,1,1.3-.6,1.2,1.2,0,0,1,1,.6,2.7,2.7,0,0,1,.4,1.5,4,4,0,0,1-1,2.9,13.4,13.4,0,0,1-3.3,2.5,8.1,8.1,0,0,1-3.9,1,5.5,5.5,0,0,1-4-1.3,4.8,4.8,0,0,1-1.4-3.6,7.6,7.6,0,0,1,.1-1.5q.1-1,.1-1.3t-.5-.8-2,1.7a23.3,23.3,0,0,0-2.4,4.4,35.7,35.7,0,0,0-1.9,5.8,7.8,7.8,0,0,1-1.3,3.2,2.9,2.9,0,0,1-2.3.8A2.7,2.7,0,0,1,211.5,44.9Z" fill="#46d0ae"/><path d="M253,36.2a3.1,3.1,0,0,1,.4,1.6,4.6,4.6,0,0,1-.9,3.1,21.4,21.4,0,0,1-4.6,4.3,9.9,9.9,0,0,1-5.7,1.7,6.9,6.9,0,0,1-6.5-4,21.8,21.8,0,0,1-2.1-10.3,70.6,70.6,0,0,1,1.6-13.8,46.9,46.9,0,0,1,4.6-13.3Q242.8,0,247,0a4.2,4.2,0,0,1,3.8,2.2,12.1,12.1,0,0,1,1.4,6.3q0,5.9-3.3,13.7a75.9,75.9,0,0,1-8.9,15.4,5.8,5.8,0,0,0,1.1,2.9,2.7,2.7,0,0,0,2.1.9,5.8,5.8,0,0,0,3.6-1.2,27.3,27.3,0,0,0,3.9-4,1.7,1.7,0,0,1,1.3-.7A1.1,1.1,0,0,1,253,36.2ZM243.3,9a67.6,67.6,0,0,0-2.5,10.2A74,74,0,0,0,239.6,31a64,64,0,0,0,5.6-11.6,31.9,31.9,0,0,0,2.1-10.7q0-3.8-1.4-3.8T243.3,9Z" fill="#46d0ae"/><path d="M278.1,36.2a3.1,3.1,0,0,1,.4,1.6,4.6,4.6,0,0,1-.9,3.1,24,24,0,0,1-4.5,4.2,8.2,8.2,0,0,1-4.8,1.8q-3.8,0-5.8-4.4a14.2,14.2,0,0,1-3.7,3.5,7.2,7.2,0,0,1-3.7.9,6.3,6.3,0,0,1-5-2.3,8.7,8.7,0,0,1-2-5.9,16.4,16.4,0,0,1,1.7-7.4,15.1,15.1,0,0,1,4.6-5.6,13.5,13.5,0,0,1,6.6-2.6,62.4,62.4,0,0,1,3.6-16.5q2.7-6.8,7-6.8a4.3,4.3,0,0,1,3.6,1.9q1.4,1.9,1.4,5.9a38.7,38.7,0,0,1-2.7,13,96.7,96.7,0,0,1-7.3,15.3,10.8,10.8,0,0,0,.9,4.1,2,2,0,0,0,1.7,1.2,4.2,4.2,0,0,0,2.7-1.2,36.4,36.4,0,0,0,3.7-4,1.7,1.7,0,0,1,1.3-.7A1.1,1.1,0,0,1,278.1,36.2Zm-19.3,4.9a14.5,14.5,0,0,0,2.4-2.9,33.2,33.2,0,0,1-.5-6q0-1.2.1-3.9a8.3,8.3,0,0,0-4.5,3.7,11.2,11.2,0,0,0-1.8,6.2q0,3.6,2.5,3.6A3,3,0,0,0,258.8,41.1ZM269.3,8.2a61.3,61.3,0,0,0-1.6,8.8q-.7,5.4-1,11.3,5.6-12.1,5.6-19.5a10.4,10.4,0,0,0-.3-2.9q-.3-1-.8-1T269.3,8.2Z" fill="#46d0ae"/><path d="M118,28.8a9,9,0,0,0-3.1-3.9,8.5,8.5,0,0,0-5-1.5,9.5,9.5,0,0,0-5.5,1.7,11.4,11.4,0,0,0-3.9,4.6,15.4,15.4,0,0,0-1.4,6.7,12.6,12.6,0,0,0,1,5.1,9.1,9.1,0,0,0,3.1,3.9,8.4,8.4,0,0,0,5,1.5,9.5,9.5,0,0,0,5.4-1.7,11.5,11.5,0,0,0,3.9-4.6,15.2,15.2,0,0,0,1.4-6.7A12.6,12.6,0,0,0,118,28.8Zm-6.3,10.9a3.4,3.4,0,0,1-2.9,1.8,3,3,0,0,1-2.5-1.3,7,7,0,0,1-1-4.2,10.1,10.1,0,0,1,1.2-5.4,3.4,3.4,0,0,1,3-1.8,2.9,2.9,0,0,1,2.4,1.4,7.1,7.1,0,0,1,1,4.1A10.1,10.1,0,0,1,111.7,39.7Z" fill="#46d0ae"/><path d="M207.4,28.8a9,9,0,0,0-3.1-3.9,8.5,8.5,0,0,0-5-1.5,9.5,9.5,0,0,0-5.5,1.7,11.4,11.4,0,0,0-3.9,4.6,15.4,15.4,0,0,0-1.4,6.7,12.6,12.6,0,0,0,1,5.1,9.1,9.1,0,0,0,3.1,3.9,8.4,8.4,0,0,0,5,1.5,9.5,9.5,0,0,0,5.4-1.7,11.5,11.5,0,0,0,3.9-4.6,15.2,15.2,0,0,0,1.4-6.7A12.6,12.6,0,0,0,207.4,28.8Zm-6.3,10.9a3.4,3.4,0,0,1-2.9,1.8,3,3,0,0,1-2.5-1.3,7,7,0,0,1-1-4.2,10.1,10.1,0,0,1,1.2-5.4,3.4,3.4,0,0,1,3-1.8,2.9,2.9,0,0,1,2.4,1.4,7.1,7.1,0,0,1,1,4.1A10.1,10.1,0,0,1,201.1,39.7Z" fill="#46d0ae"/></svg>