<svg id="Calque_2" data-name="Calque 2" xmlns="http://www.w3.org/2000/svg" viewBox="0 0 143.7 122"><title>link</title><circle cx="80.2" cy="34.7" r="10.6" fill="#46d0ae"/><path d="M81.2,82.4a35.3,35.3,0,0,0,14.5-3V63.5a6.1,6.1,0,0,0-6.1-6.1H72.8a6.1,6.1,0,0,0-6.1,6.1V79.4A36.9,36.9,0,0,0,81.2,82.4Z" fill="#46d0ae"/><circle cx="62.1" cy="112.1" r="9.9" fill="#ff937e"/><circle cx="14.9" cy="67.9" r="9.9" fill="#eae200"/><circle cx="60.1" cy="106.1" r="9.9" fill="none" stroke="#1d2d5e" stroke-linecap="round" stroke-linejoin="round" stroke-width="6"/><circle cx="12.9" cy="61.9" r="9.9" fill="none" stroke="#1d2d5e" stroke-linecap="round" stroke-linejoin="round" stroke-width="6"/><circle cx="133.8" cy="97.7" r="9.9" fill="#eae200"/><circle cx="127.8" cy="93.7" r="9.9" fill="none" stroke="#1d2d5e" stroke-linecap="round" stroke-linejoin="round" stroke-width="6"/><line x1="108.3" y1="73.8" x2="120.9" y2="86.6" fill="none" stroke="#1d2d5e" stroke-linecap="round" stroke-linejoin="round" stroke-width="6"/><line x1="30" y1="56.2" x2="22.8" y2="58.6" fill="none" stroke="#1d2d5e" stroke-linecap="round" stroke-linejoin="round" stroke-width="6"/><line x1="67.3" y1="77" x2="62.5" y2="96.3" fill="none" stroke="#1d2d5e" stroke-linecap="round" stroke-linejoin="round" stroke-width="6"/><path d="M102.4,13.8A37,37,0,1,0,113.2,40" fill="none" stroke="#1d2d5e" stroke-linecap="round" stroke-linejoin="round" stroke-width="6"/><path d="M30.6,23.1a48.7,48.7,0,0,1,12-18.3" fill="none" stroke="#1d2d5e" stroke-linecap="round" stroke-linejoin="round" stroke-width="6"/><path d="M27.8,35.3q.1-1.5.4-3" fill="none" stroke="#1d2d5e" stroke-linecap="round" stroke-linejoin="round" stroke-width="6"/><path d="M109.2,23.1q.8,1.6,1.5,3.2" fill="#fff" stroke="#1d2d5e" stroke-linecap="round" stroke-linejoin="round" stroke-width="6"/><circle cx="76.2" cy="30.7" r="10.6" fill="none" stroke="#1d2d5e" stroke-linecap="round" stroke-linejoin="round" stroke-width="6"/><path d="M76.2,77a36.9,36.9,0,0,0,14.8-3.1l-.3-.5V58.1A6.1,6.1,0,0,0,84.6,52H67.8a6.1,6.1,0,0,0-6.1,6.1V74A36.9,36.9,0,0,0,76.2,77Z" fill="none" stroke="#1d2d5e" stroke-linecap="round" stroke-linejoin="round" stroke-width="6"/></svg>