<svg id="Calque_2" data-name="Calque 2" xmlns="http://www.w3.org/2000/svg" viewBox="0 0 131.6 125.9"><title>mobile</title><path d="M18.1,0H93a0,0,0,0,1,0,0V90a0,0,0,0,1,0,0H26.9a8.8,8.8,0,0,1-8.8-8.8V0A0,0,0,0,1,18.1,0Z" transform="translate(111 90) rotate(-180)" fill="#46d0ae"/><path d="M3,20.4v94.8a7.8,7.8,0,0,0,7.8,7.8h67a7.8,7.8,0,0,0,7.8-7.8V14.5a7.8,7.8,0,0,0-7.8-7.8h-67A7.8,7.8,0,0,0,3,14.5v5.9" fill="none" stroke="#1d2d5e" stroke-linecap="round" stroke-linejoin="round" stroke-width="6"/><path d="M77.8,6.8H19.5a7.8,7.8,0,0,0-7.8,7.8v5.9" fill="none" stroke="#1d2d5e" stroke-linecap="round" stroke-linejoin="round" stroke-width="4"/><path d="M11.8,20.4v94.8a7.8,7.8,0,0,0,7.8,7.8H77.8" fill="none" stroke="#1d2d5e" stroke-linecap="round" stroke-linejoin="round" stroke-width="4"/><line x1="57.9" y1="18.4" x2="42" y2="18.4" fill="none" stroke="#1d2d5e" stroke-linecap="round" stroke-linejoin="round" stroke-width="6"/><circle cx="48.7" cy="109" r="5" fill="#ff937e"/><path d="M85.5,96.7c0-.4-60.1.4-60.1.4" fill="none" stroke="#1d2d5e" stroke-linecap="round" stroke-linejoin="round" stroke-width="5"/><line x1="73.8" y1="68.5" x2="73.8" y2="47.9" fill="none" stroke="#fff" stroke-linecap="round" stroke-linejoin="round" stroke-width="6"/><line x1="73.8" y1="39.4" x2="73.8" y2="36.8" fill="none" stroke="#fff" stroke-linecap="round" stroke-linejoin="round" stroke-width="6"/><line x1="128.6" y1="53.5" x2="128.6" y2="53.5" fill="none" stroke="#1d2d5e" stroke-linecap="round" stroke-linejoin="round" stroke-width="6"/><line x1="105.3" y1="53.5" x2="119" y2="53.5" fill="none" stroke="#1d2d5e" stroke-linecap="round" stroke-linejoin="round" stroke-width="6"/><line x1="105.3" y1="39.8" x2="115.1" y2="35.3" fill="none" stroke="#1d2d5e" stroke-linecap="round" stroke-linejoin="round" stroke-width="6"/><line x1="105.3" y1="67.2" x2="115.1" y2="71.7" fill="none" stroke="#1d2d5e" stroke-linecap="round" stroke-linejoin="round" stroke-width="6"/></svg>